<?xml version="1.0" encoding="UTF-8" standalone="no"?>
<!DOCTYPE svg PUBLIC "-//W3C//DTD SVG 1.1//EN" "http://www.w3.org/Graphics/SVG/1.1/DTD/svg11.dtd">
<svg width="100%" height="100%" viewBox="0 0 24 28" version="1.1" xmlns="http://www.w3.org/2000/svg" xmlns:xlink="http://www.w3.org/1999/xlink" xml:space="preserve" xmlns:serif="http://www.serif.com/" style="fill-rule:evenodd;clip-rule:evenodd;stroke-linejoin:round;stroke-miterlimit:2;">
    <path id="SSD" d="M24,2.4L24,25.6C24,26.925 22.925,28 21.6,28L2.4,28C1.075,28 0,26.925 0,25.6L0,2.4C0,1.075 1.075,0 2.4,0L21.6,0C22.925,0 24,1.075 24,2.4ZM18.947,9.005C18.852,8.798 18.645,8.665 18.417,8.665L12.164,8.665L13.149,4.723C13.16,4.677 13.166,4.63 13.166,4.584C13.166,4.264 12.903,4 12.583,4C12.413,4 12.252,4.074 12.141,4.202L5.14,12.37C5.05,12.476 5,12.61 5,12.749C5,13.069 5.263,13.332 5.582,13.333L11.835,13.333L10.85,17.275C10.785,17.537 10.91,17.811 11.149,17.935C11.232,17.978 11.323,18 11.416,18C11.586,18 11.748,17.925 11.859,17.796L18.86,9.628C19.008,9.455 19.042,9.211 18.947,9.005ZM21,24.5C21,23.672 20.328,23 19.5,23L4.5,23C3.672,23 3,23.672 3,24.5C3,25.328 3.672,26 4.5,26L19.5,26C20.328,26 21,25.328 21,24.5ZM19,24.5C19,24.776 18.776,25 18.5,25L16.5,25C16.224,25 16,24.776 16,24.5C16,24.224 16.224,24 16.5,24L18.5,24C18.776,24 19,24.224 19,24.5Z" style="fill:rgb(80,91,100);"/>
</svg>
